# xmcd
#
# Track frame offsets: 
#        150
#        11055
#        21755
#        34209
#        44667
#        55558
#        68290
#        79795
#        93596
#        104802
#        115341
#        125205
#        137316
#        148488
#        162945
#        172032
#        187684
#        199037
#        210868
#        223476
#
# Disc length: 3140 seconds
#
# Revision: 0
# Processed by: cddbd v1.5.2PL0 Copyright (c) Steve Scherf et al.
# Submitted via: ExactAudioCopy v1.0b4
#
DISCID=250c4214
DTITLE=Various Artist - CD 6
DYEAR=2013
DGENRE=Soul
TTITLE0=Jimmy Ruffin - Don't feel sorry for me
TTITLE1=Carla Thomas - Promises
TTITLE2=Marv Johnson - You've got to move two mountains
TTITLE3=Esther Phillips - Wild child
TTITLE4=Sam Cooke - Loveable
TTITLE5=Aretha Franklin - Rough Lover
TTITLE6=Ben E. King - Nobody but me (with The Drifters)
TTITLE7=The Miracles - Who's lovin' you
TTITLE8=James Brown - There must be a reason
TTITLE9=Marv Johnson - Come to me
TTITLE10=Lloyd Price - Have you ever had the blues
TTITLE11=Sam Cooke - Sad mood
TTITLE12=Sam and Dave - No more pain
TTITLE13=Marvin Gaye - Let your conscience be your guide
TTITLE14=Sam Cooke - There, I've said it again
TTITLE15=Aretha Franklin - I'm wandering
TTITLE16=Ben E. King - This magic moment (with The Drifters)
TTITLE17=The Marvelettes - I want a guy
TTITLE18=James Brown - I want you so bad
TTITLE19=The Coasters - Searchin'
EXTD=
EXTT0=
EXTT1=
EXTT2=
EXTT3=
EXTT4=
EXTT5=
EXTT6=
EXTT7=
EXTT8=
EXTT9=
EXTT10=
EXTT11=
EXTT12=
EXTT13=
EXTT14=
EXTT15=
EXTT16=
EXTT17=
EXTT18=
EXTT19=
PLAYORDER=
